<svg width="14" height="14" viewBox="0 0 14 14" fill="none" xmlns="http://www.w3.org/2000/svg">
<g clip-path="url(#clip0_1292_1382)">
<path d="M6.99707 0.328125C10.8577 0.328125 13.9988 2.87698 13.999 6.00977C13.999 7.26316 13.5129 8.3929 12.499 9.50586C11.0297 11.1964 7.74388 13.2553 6.99707 13.5703C6.25052 13.8851 6.36142 13.3699 6.3916 13.1934C6.40922 13.0883 6.48988 12.6018 6.49121 12.5938C6.51484 12.4153 6.53962 12.1375 6.46875 11.9609C6.39 11.766 6.07928 11.6654 5.85156 11.6162C2.48965 11.1712 -0.00390625 8.81848 -0.00390625 6.00977C-0.00368203 2.87711 3.13671 0.328334 6.99707 0.328125ZM8.46191 4.49414C8.42714 4.49414 8.39375 4.50766 8.36914 4.53223C8.34453 4.55684 8.33008 4.59019 8.33008 4.625V6.44043L6.92969 4.55957L6.91992 4.5459C6.91765 4.54275 6.91409 4.53963 6.91113 4.53711L6.9043 4.53125H6.90137L6.89355 4.52539H6.88965L6.88281 4.52148H6.87793L6.87012 4.51758H6.32715C6.29235 4.51758 6.25899 4.53203 6.23438 4.55664C6.20976 4.58125 6.19531 4.6146 6.19531 4.64941V7.70508C6.19531 7.73989 6.20976 7.77324 6.23438 7.79785C6.25899 7.82247 6.29234 7.83691 6.32715 7.83691H6.82324C6.85797 7.83685 6.89146 7.82241 6.91602 7.79785C6.94048 7.77326 6.9541 7.73977 6.9541 7.70508V5.87207L8.35449 7.7627C8.36416 7.77543 8.37555 7.78676 8.38867 7.7959L8.39746 7.80078H8.42773C8.43889 7.80391 8.45033 7.80576 8.46191 7.80566H8.95605C8.99069 7.80566 9.02425 7.79196 9.04883 7.76758C9.07337 7.74304 9.08781 7.7095 9.08789 7.6748V4.62891C9.08841 4.61159 9.08528 4.59431 9.0791 4.57812C9.07289 4.56195 9.06371 4.54672 9.05176 4.53418C9.03973 4.5216 9.02475 4.51184 9.00879 4.50488C8.99285 4.49794 8.97539 4.49439 8.95801 4.49414H8.46191ZM9.70117 4.50195C9.66642 4.50195 9.633 4.5155 9.6084 4.54004C9.5838 4.56464 9.56935 4.59803 9.56934 4.63281V7.6875C9.56934 7.7223 9.5838 7.75566 9.6084 7.78027C9.63301 7.80489 9.66636 7.81934 9.70117 7.81934H11.6699C11.6876 7.81933 11.7054 7.81553 11.7217 7.80859C11.7379 7.80163 11.7524 7.79109 11.7646 7.77832C11.7769 7.76551 11.7867 7.74999 11.793 7.7334C11.7991 7.71692 11.8016 7.6992 11.8008 7.68164V7.18457C11.8007 7.14993 11.7872 7.1163 11.7627 7.0918C11.7381 7.06731 11.7046 7.05376 11.6699 7.05371H10.333V6.53516H11.6699C11.7047 6.53511 11.7381 6.52164 11.7627 6.49707C11.7873 6.4725 11.8007 6.43903 11.8008 6.4043V5.90723C11.8008 5.87247 11.7873 5.83904 11.7627 5.81445C11.7381 5.78988 11.7047 5.77641 11.6699 5.77637H10.333V5.26074H11.6699C11.7047 5.26069 11.7381 5.24625 11.7627 5.22168C11.7872 5.19708 11.8008 5.16365 11.8008 5.12891V4.63281C11.8008 4.59805 11.7873 4.56463 11.7627 4.54004C11.7381 4.51547 11.7047 4.502 11.6699 4.50195H9.70117ZM2.42969 4.49805C2.39488 4.49805 2.36153 4.5125 2.33691 4.53711C2.3123 4.56172 2.29785 4.59507 2.29785 4.62988V7.68262C2.29793 7.71732 2.31237 7.75084 2.33691 7.77539C2.36149 7.79978 2.39504 7.81348 2.42969 7.81348H4.39844L4.39355 7.81836C4.42832 7.81833 4.46174 7.80388 4.48633 7.7793C4.51077 7.75471 4.52441 7.72121 4.52441 7.68652V7.19043C4.52441 7.15572 4.51081 7.12225 4.48633 7.09766C4.46174 7.07307 4.42832 7.05863 4.39355 7.05859H3.05664V4.62988C3.05664 4.59526 3.04291 4.56168 3.01855 4.53711C2.99403 4.51259 2.96045 4.49815 2.92578 4.49805H2.42969ZM5.08203 4.49512C5.00809 4.49512 4.94824 4.55497 4.94824 4.62891V7.68457C4.94846 7.75832 5.00823 7.81836 5.08203 7.81836H5.57812C5.65191 7.81834 5.7117 7.75831 5.71191 7.68457V4.62891C5.71191 4.55498 5.65204 4.49514 5.57812 4.49512H5.08203Z" fill="white"/>
</g>
<defs>
<clipPath id="clip0_1292_1382">
<rect width="14" height="14" fill="white"/>
</clipPath>
</defs>
</svg>
