<svg width="24" height="24" viewBox="0 0 24 24" fill="none" xmlns="http://www.w3.org/2000/svg">
<rect width="24" height="24" rx="12" fill="#1891CD"/>
<g clip-path="url(#clip0_1292_1507)">
<path d="M11.9971 5.32812C15.8577 5.32812 18.9988 7.87698 18.999 11.0098C18.999 12.2632 18.5129 13.3929 17.499 14.5059C16.0297 16.1964 12.7439 18.2553 11.9971 18.5703C11.2505 18.8851 11.3614 18.3699 11.3916 18.1934C11.4092 18.0883 11.4899 17.6018 11.4912 17.5938C11.5148 17.4153 11.5396 17.1375 11.4688 16.9609C11.39 16.766 11.0793 16.6654 10.8516 16.6162C7.48965 16.1712 4.99609 13.8185 4.99609 11.0098C4.99632 7.87711 8.13671 5.32833 11.9971 5.32812ZM13.4619 9.49414C13.4271 9.49414 13.3937 9.50766 13.3691 9.53223C13.3445 9.55684 13.3301 9.59019 13.3301 9.625V11.4404L11.9297 9.55957L11.9199 9.5459C11.9176 9.54275 11.9141 9.53963 11.9111 9.53711L11.9043 9.53125H11.9014L11.8936 9.52539H11.8896L11.8828 9.52148H11.8779L11.8701 9.51758H11.3271C11.2923 9.51758 11.259 9.53203 11.2344 9.55664C11.2098 9.58125 11.1953 9.6146 11.1953 9.64941V12.7051C11.1953 12.7399 11.2098 12.7732 11.2344 12.7979C11.259 12.8225 11.2923 12.8369 11.3271 12.8369H11.8232C11.858 12.8369 11.8915 12.8224 11.916 12.7979C11.9405 12.7733 11.9541 12.7398 11.9541 12.7051V10.8721L13.3545 12.7627C13.3642 12.7754 13.3756 12.7868 13.3887 12.7959L13.3975 12.8008H13.4277C13.4389 12.8039 13.4503 12.8058 13.4619 12.8057H13.9561C13.9907 12.8057 14.0243 12.792 14.0488 12.7676C14.0734 12.743 14.0878 12.7095 14.0879 12.6748V9.62891C14.0884 9.61159 14.0853 9.59431 14.0791 9.57812C14.0729 9.56195 14.0637 9.54672 14.0518 9.53418C14.0397 9.5216 14.0247 9.51184 14.0088 9.50488C13.9928 9.49794 13.9754 9.49439 13.958 9.49414H13.4619ZM14.7012 9.50195C14.6664 9.50195 14.633 9.5155 14.6084 9.54004C14.5838 9.56464 14.5694 9.59803 14.5693 9.63281V12.6875C14.5693 12.7223 14.5838 12.7557 14.6084 12.7803C14.633 12.8049 14.6664 12.8193 14.7012 12.8193H16.6699C16.6876 12.8193 16.7054 12.8155 16.7217 12.8086C16.7379 12.8016 16.7524 12.7911 16.7646 12.7783C16.7769 12.7655 16.7867 12.75 16.793 12.7334C16.7991 12.7169 16.8016 12.6992 16.8008 12.6816V12.1846C16.8007 12.1499 16.7872 12.1163 16.7627 12.0918C16.7381 12.0673 16.7046 12.0538 16.6699 12.0537H15.333V11.5352H16.6699C16.7047 11.5351 16.7381 11.5216 16.7627 11.4971C16.7873 11.4725 16.8007 11.439 16.8008 11.4043V10.9072C16.8008 10.8725 16.7873 10.839 16.7627 10.8145C16.7381 10.7899 16.7047 10.7764 16.6699 10.7764H15.333V10.2607H16.6699C16.7047 10.2607 16.7381 10.2463 16.7627 10.2217C16.7872 10.1971 16.8008 10.1637 16.8008 10.1289V9.63281C16.8008 9.59805 16.7873 9.56463 16.7627 9.54004C16.7381 9.51547 16.7047 9.502 16.6699 9.50195H14.7012ZM7.42969 9.49805C7.39488 9.49805 7.36153 9.5125 7.33691 9.53711C7.3123 9.56172 7.29785 9.59507 7.29785 9.62988V12.6826C7.29793 12.7173 7.31237 12.7508 7.33691 12.7754C7.36149 12.7998 7.39504 12.8135 7.42969 12.8135H9.39844L9.39355 12.8184C9.42832 12.8183 9.46174 12.8039 9.48633 12.7793C9.51077 12.7547 9.52441 12.7212 9.52441 12.6865V12.1904C9.52441 12.1557 9.51081 12.1223 9.48633 12.0977C9.46174 12.0731 9.42832 12.0586 9.39355 12.0586H8.05664V9.62988C8.05664 9.59526 8.04291 9.56168 8.01855 9.53711C7.99403 9.51259 7.96045 9.49815 7.92578 9.49805H7.42969ZM10.082 9.49512C10.0081 9.49512 9.94824 9.55497 9.94824 9.62891V12.6846C9.94846 12.7583 10.0082 12.8184 10.082 12.8184H10.5781C10.6519 12.8183 10.7117 12.7583 10.7119 12.6846V9.62891C10.7119 9.55498 10.652 9.49514 10.5781 9.49512H10.082Z" fill="white"/>
</g>
<defs>
<clipPath id="clip0_1292_1507">
<rect width="14" height="14" fill="white" transform="translate(5 5)"/>
</clipPath>
</defs>
</svg>
