<svg width="24" height="24" viewBox="0 0 24 24" fill="none" xmlns="http://www.w3.org/2000/svg">
<rect width="24" height="24" rx="12" fill="#1891CD"/>
<path d="M12.6807 17.0732L12.6865 17.0664L12.6934 17.0586C13.0071 16.7147 13.2556 16.3239 13.4287 15.9043C13.6211 15.4234 13.6875 14.824 13.6875 14.6133V8.59375L14.6328 9.12988C14.6632 9.14714 14.7922 9.22758 14.8877 9.28711C14.9412 9.32047 14.9941 9.3535 15.0332 9.37793C15.0526 9.39005 15.0688 9.40015 15.0801 9.40723C15.0837 9.40951 15.0873 9.41147 15.0898 9.41309C15.092 9.41435 15.0971 9.41726 15.1035 9.4209C15.1164 9.42827 15.1378 9.44048 15.167 9.45605C15.2258 9.48741 15.3167 9.53371 15.4346 9.58691C15.671 9.6936 16.0147 9.82762 16.4336 9.93359H16.4326C16.6664 9.99221 16.9451 10.0307 17.2002 10.0596V8.9541C16.8226 8.89212 16.3889 8.76631 15.9648 8.56641L15.957 8.5625C15.839 8.50482 15.7239 8.44172 15.6123 8.37305L15.6084 8.37012C15.2922 8.17249 15.0009 7.9393 14.7422 7.6748L14.7363 7.66895L14.7305 7.66211C14.0756 6.9536 13.8225 6.22303 13.7285 5.69824L13.7168 5.63281H12.4111V14.2969C12.4111 14.4106 12.4103 14.5381 12.4053 14.667C12.4053 14.6956 12.4042 14.7197 12.4033 14.7324C12.403 14.7377 12.4024 14.7447 12.4023 14.7461C12.4022 14.7482 12.4014 14.749 12.4014 14.749V14.7646L12.3994 14.7891C12.3638 15.2323 12.2134 15.6584 11.9648 16.0293C11.7163 16.4 11.3776 16.7042 10.9814 16.917C10.5675 17.1396 10.1018 17.2543 9.62988 17.2539H9.62891C8.12485 17.2535 6.85156 16.0867 6.85156 14.5801C6.85162 13.0735 8.12489 11.9057 9.62891 11.9053H9.62988C9.639 11.9053 9.64811 11.9062 9.65723 11.9062L9.65918 10.7871C9.2778 10.7896 8.8976 10.8408 8.53027 10.9424C7.98776 11.0925 7.48619 11.3463 7.05566 11.6855L6.91504 11.8057C6.59477 12.0928 6.32354 12.4236 6.11035 12.7861L6.10449 12.7969C6.03139 12.916 5.67865 13.5144 5.63574 14.5127V14.5156C5.61104 15.0365 5.78177 15.612 5.87305 15.8701L5.88281 15.8994C5.94949 16.0647 6.14404 16.4898 6.43457 16.8486V16.7852L7.45801 17.752C7.96946 18.0707 8.51284 18.2282 8.94238 18.3027C9.16073 18.3406 9.34385 18.3569 9.46973 18.3633C9.53253 18.3665 9.58089 18.3671 9.61133 18.3672H9.64551C9.89083 18.3578 10.5654 18.3647 11.3379 18.0186C11.7716 17.8243 12.1142 17.5813 12.3477 17.3867C12.4635 17.2902 12.551 17.2073 12.6074 17.1504C12.6353 17.1222 12.6558 17.1002 12.668 17.0869C12.6738 17.0806 12.6777 17.0755 12.6797 17.0732H12.6807ZM12.6807 17.0732L12.6816 17.0723H12.6807V17.0732ZM14.3516 5.62891C14.3416 5.62938 14.3316 5.63281 14.3213 5.63281V5.59277L14.3516 5.58691V5.62891Z" fill="white" stroke="white" stroke-width="1.26591"/>
</svg>
