<svg width="24" height="24" viewBox="0 0 24 24" fill="none" xmlns="http://www.w3.org/2000/svg">
<rect width="24.001" height="24.001" rx="12.0005" fill="#1891CD"/>
<rect x="6" y="7" width="12.0005" height="10.0004" fill="#1891CD"/>
<path d="M10.561 14.0586L14.298 12.0014L10.561 9.94414V14.0586ZM18.8846 8.68923C18.9782 9.01153 19.043 9.44355 19.0862 9.99214C19.1366 10.5407 19.1582 11.0139 19.1582 11.4253L19.2014 12.0014C19.2014 13.5031 19.0862 14.6072 18.8846 15.3135C18.7045 15.9307 18.2869 16.3284 17.6389 16.4998C17.3005 16.589 16.6813 16.6507 15.7308 16.6918C14.7948 16.7398 13.938 16.7604 13.1459 16.7604L12.0011 16.8016C8.98415 16.8016 7.10487 16.6918 6.36324 16.4998C5.71522 16.3284 5.2976 15.9307 5.11759 15.3135C5.02399 14.9912 4.95919 14.5592 4.91599 14.0106C4.86558 13.462 4.84398 12.9888 4.84398 12.5774L4.80078 12.0014C4.80078 10.4996 4.91599 9.39555 5.11759 8.68923C5.2976 8.07206 5.71522 7.67433 6.36324 7.5029C6.70166 7.41375 7.32088 7.35204 8.27132 7.31089C9.20736 7.26289 10.0642 7.24232 10.8562 7.24232L12.0011 7.20117C15.018 7.20117 16.8973 7.31089 17.6389 7.5029C18.2869 7.67433 18.7045 8.07206 18.8846 8.68923Z" fill="white"/>
</svg>
