<svg width="16" height="16" viewBox="0 0 16 16" fill="none" xmlns="http://www.w3.org/2000/svg">
<path d="M15 8.12549V14.3755C15 14.707 14.8683 15.025 14.6339 15.2594C14.3995 15.4938 14.0815 15.6255 13.75 15.6255H1.25C0.918479 15.6255 0.600537 15.4938 0.366116 15.2594C0.131696 15.025 0 14.707 0 14.3755V1.87549C0 1.54397 0.131696 1.22603 0.366116 0.991608C0.600537 0.757188 0.918479 0.625492 1.25 0.625492H7.5C7.66576 0.625492 7.82473 0.69134 7.94194 0.80855C8.05915 0.92576 8.125 1.08473 8.125 1.25049C8.125 1.41625 8.05915 1.57522 7.94194 1.69243C7.82473 1.80964 7.66576 1.87549 7.5 1.87549H1.25V14.3755H13.75V8.12549C13.75 7.95973 13.8158 7.80076 13.9331 7.68355C14.0503 7.56634 14.2092 7.50049 14.375 7.50049C14.5408 7.50049 14.6997 7.56634 14.8169 7.68355C14.9342 7.80076 15 7.95973 15 8.12549ZM15.4422 3.56768L7.94219 11.0677C7.8841 11.1257 7.81515 11.1717 7.73928 11.2031C7.66341 11.2344 7.5821 11.2506 7.5 11.2505H5C4.83424 11.2505 4.67527 11.1846 4.55806 11.0674C4.44085 10.9502 4.375 10.7913 4.375 10.6255V8.12549C4.37494 8.04339 4.39105 7.96208 4.42241 7.88621C4.45378 7.81034 4.49979 7.74139 4.55781 7.6833L12.0578 0.183304C12.1159 0.125194 12.1848 0.0790944 12.2607 0.0476417C12.3365 0.016189 12.4179 0 12.5 0C12.5821 0 12.6635 0.016189 12.7393 0.0476417C12.8152 0.0790944 12.8841 0.125194 12.9422 0.183304L15.4422 2.6833C15.5003 2.74135 15.5464 2.81028 15.5778 2.88615C15.6093 2.96203 15.6255 3.04336 15.6255 3.12549C15.6255 3.20763 15.6093 3.28896 15.5778 3.36483C15.5464 3.4407 15.5003 3.50963 15.4422 3.56768ZM14.1141 3.12549L12.5 1.50909L11.5086 2.50049L13.125 4.1169L14.1141 3.12549Z" fill="#1891CD"/>
</svg>
