<svg width="12" height="18" viewBox="0 0 12 18" fill="none" xmlns="http://www.w3.org/2000/svg">
<path d="M9.375 0H1.875C1.37772 0 0.900805 0.197544 0.549175 0.549175C0.197544 0.900805 0 1.37772 0 1.875V15.625C0 16.1223 0.197544 16.5992 0.549175 16.9508C0.900805 17.3025 1.37772 17.5 1.875 17.5H9.375C9.87228 17.5 10.3492 17.3025 10.7008 16.9508C11.0525 16.5992 11.25 16.1223 11.25 15.625V1.875C11.25 1.37772 11.0525 0.900805 10.7008 0.549175C10.3492 0.197544 9.87228 0 9.375 0ZM5.625 4.375C5.43958 4.375 5.25832 4.32002 5.10415 4.217C4.94998 4.11399 4.82982 3.96757 4.75886 3.79627C4.68791 3.62496 4.66934 3.43646 4.70551 3.2546C4.74169 3.07275 4.83098 2.9057 4.96209 2.77459C5.0932 2.64348 5.26024 2.55419 5.4421 2.51801C5.62396 2.48184 5.81246 2.50041 5.98376 2.57136C6.15507 2.64232 6.30149 2.76248 6.4045 2.91665C6.50752 3.07082 6.5625 3.25208 6.5625 3.4375C6.5625 3.68614 6.46373 3.9246 6.28791 4.10041C6.1121 4.27623 5.87364 4.375 5.625 4.375Z" fill="#1891CD"/>
</svg>
