<svg width="17" height="14" viewBox="0 0 17 14" fill="none" xmlns="http://www.w3.org/2000/svg">
<path d="M15 0H1.25C0.918479 0 0.600537 0.131696 0.366116 0.366116C0.131696 0.600537 0 0.918479 0 1.25V13.125C5.6869e-05 13.2315 0.0273395 13.3363 0.0792576 13.4293C0.131176 13.5223 0.206006 13.6005 0.296645 13.6565C0.387284 13.7124 0.490722 13.7443 0.597141 13.749C0.703559 13.7538 0.809425 13.7313 0.904688 13.6836L3.125 12.5734L5.34531 13.6836C5.43214 13.727 5.5279 13.7497 5.625 13.7497C5.7221 13.7497 5.81786 13.727 5.90469 13.6836L8.125 12.5734L10.3453 13.6836C10.4321 13.727 10.5279 13.7497 10.625 13.7497C10.7221 13.7497 10.8179 13.727 10.9047 13.6836L13.125 12.5734L15.3453 13.6836C15.4406 13.7313 15.5464 13.7538 15.6529 13.749C15.7593 13.7443 15.8627 13.7124 15.9534 13.6565C16.044 13.6005 16.1188 13.5223 16.1707 13.4293C16.2227 13.3363 16.2499 13.2315 16.25 13.125V1.25C16.25 0.918479 16.1183 0.600537 15.8839 0.366116C15.6495 0.131696 15.3315 0 15 0ZM11.875 8.125H4.375C4.20924 8.125 4.05027 8.05915 3.93306 7.94194C3.81585 7.82473 3.75 7.66576 3.75 7.5C3.75 7.33424 3.81585 7.17527 3.93306 7.05806C4.05027 6.94085 4.20924 6.875 4.375 6.875H11.875C12.0408 6.875 12.1997 6.94085 12.3169 7.05806C12.4342 7.17527 12.5 7.33424 12.5 7.5C12.5 7.66576 12.4342 7.82473 12.3169 7.94194C12.1997 8.05915 12.0408 8.125 11.875 8.125ZM11.875 5.625H4.375C4.20924 5.625 4.05027 5.55915 3.93306 5.44194C3.81585 5.32473 3.75 5.16576 3.75 5C3.75 4.83424 3.81585 4.67527 3.93306 4.55806C4.05027 4.44085 4.20924 4.375 4.375 4.375H11.875C12.0408 4.375 12.1997 4.44085 12.3169 4.55806C12.4342 4.67527 12.5 4.83424 12.5 5C12.5 5.16576 12.4342 5.32473 12.3169 5.44194C12.1997 5.55915 12.0408 5.625 11.875 5.625Z" fill="#1891CD"/>
</svg>
