<svg width="18" height="15" viewBox="0 0 18 15" fill="none" xmlns="http://www.w3.org/2000/svg">
<path d="M10.625 10H6.875V1.25C6.875 0.918479 7.0067 0.600537 7.24112 0.366116C7.47554 0.131696 7.79348 0 8.125 0H9.375C9.70652 0 10.0245 0.131696 10.2589 0.366116C10.4933 0.600537 10.625 0.918479 10.625 1.25V10ZM16.25 11.25H1.25C0.918479 11.25 0.600537 11.3817 0.366116 11.6161C0.131696 11.8505 0 12.1685 0 12.5V13.125C0 13.4565 0.131696 13.7745 0.366116 14.0089C0.600537 14.2433 0.918479 14.375 1.25 14.375H16.25C16.5815 14.375 16.8995 14.2433 17.1339 14.0089C17.3683 13.7745 17.5 13.4565 17.5 13.125V12.5C17.5 12.1685 17.3683 11.8505 17.1339 11.6161C16.8995 11.3817 16.5815 11.25 16.25 11.25ZM16.25 9.6875V8.75C16.2462 7.40232 15.881 6.08033 15.1924 4.92182C14.5038 3.76332 13.5171 2.81071 12.3352 2.16328C12.2875 2.13774 12.2341 2.12499 12.18 2.12629C12.126 2.12758 12.0732 2.14286 12.0269 2.17065C11.9805 2.19844 11.9421 2.23777 11.9155 2.28482C11.8889 2.33187 11.8749 2.38501 11.875 2.43906V10H15.9375C16.0204 10 16.0999 9.96708 16.1585 9.90847C16.2171 9.84987 16.25 9.77038 16.25 9.6875ZM1.5625 10H5.625V2.43906C5.62506 2.38501 5.6111 2.33187 5.58449 2.28482C5.55787 2.23777 5.51951 2.19844 5.47315 2.17065C5.42678 2.14286 5.374 2.12758 5.31997 2.12629C5.26593 2.12499 5.21248 2.13774 5.16484 2.16328C3.98286 2.81071 2.99616 3.76332 2.3076 4.92182C1.61903 6.08033 1.25381 7.40232 1.25 8.75V9.6875C1.25 9.77038 1.28292 9.84987 1.34153 9.90847C1.40013 9.96708 1.47962 10 1.5625 10Z" fill="#1891CD"/>
</svg>
