<svg width="30" height="23" viewBox="0 0 30 23" fill="none" xmlns="http://www.w3.org/2000/svg">
<path d="M29 20.9996H28V9.33338C28 9.00424 27.9188 8.68018 27.7635 8.38996C27.6083 8.09973 27.3838 7.85231 27.11 7.66963L16.11 0.335883C15.7815 0.11687 15.3955 0 15.0006 0C14.6058 0 14.2198 0.11687 13.8912 0.335883L2.89125 7.66963C2.61722 7.85216 2.3925 8.09953 2.23702 8.38976C2.08154 8.68 2.00013 9.00413 2 9.33338V20.9996H1C0.734784 20.9996 0.48043 21.105 0.292893 21.2925C0.105357 21.4801 0 21.7344 0 21.9996C0 22.2648 0.105357 22.5192 0.292893 22.7067C0.48043 22.8943 0.734784 22.9996 1 22.9996H29C29.2652 22.9996 29.5196 22.8943 29.7071 22.7067C29.8946 22.5192 30 22.2648 30 21.9996C30 21.7344 29.8946 21.4801 29.7071 21.2925C29.5196 21.105 29.2652 20.9996 29 20.9996ZM16 12.9996H23V15.9996H16V12.9996ZM14 15.9996H7V12.9996H14V15.9996ZM7 17.9996H14V20.9996H7V17.9996ZM16 17.9996H23V20.9996H16V17.9996Z" fill="#6B757A"/>
</svg>
